<mxfile host="app.diagrams.net" agent="Mozilla/5.0 (Windows NT 10.0; Win64; x64) AppleWebKit/537.36 (KHTML, like Gecko) Chrome/129.0.0.0 Safari/537.36" version="24.7.17">
  <diagram id="C5RBs43oDa-KdzZeNtuy" name="Page-1">
    <mxGraphModel dx="1761" dy="579" grid="0" gridSize="10" guides="1" tooltips="1" connect="1" arrows="1" fold="1" page="1" pageScale="1" pageWidth="827" pageHeight="1169" math="0" shadow="0">
      <root>
        <mxCell id="WIyWlLk6GJQsqaUBKTNV-0" />
        <mxCell id="WIyWlLk6GJQsqaUBKTNV-1" parent="WIyWlLk6GJQsqaUBKTNV-0" />
        <mxCell id="3fvBfz5fNopYkzwB1lC8-30" value="" style="edgeStyle=orthogonalEdgeStyle;rounded=0;orthogonalLoop=1;jettySize=auto;html=1;" edge="1" parent="WIyWlLk6GJQsqaUBKTNV-1" source="3fvBfz5fNopYkzwB1lC8-1" target="3fvBfz5fNopYkzwB1lC8-29">
          <mxGeometry relative="1" as="geometry" />
        </mxCell>
        <mxCell id="3fvBfz5fNopYkzwB1lC8-43" style="edgeStyle=orthogonalEdgeStyle;rounded=0;orthogonalLoop=1;jettySize=auto;html=1;" edge="1" parent="WIyWlLk6GJQsqaUBKTNV-1" source="3fvBfz5fNopYkzwB1lC8-1" target="3fvBfz5fNopYkzwB1lC8-33">
          <mxGeometry relative="1" as="geometry" />
        </mxCell>
        <mxCell id="3fvBfz5fNopYkzwB1lC8-1" value="1. register&lt;div&gt;2. login&lt;/div&gt;&lt;div&gt;3. exit&lt;/div&gt;" style="rounded=1;whiteSpace=wrap;html=1;absoluteArcSize=1;arcSize=14;strokeWidth=2;" vertex="1" parent="WIyWlLk6GJQsqaUBKTNV-1">
          <mxGeometry x="255" y="150" width="190" height="80" as="geometry" />
        </mxCell>
        <mxCell id="3fvBfz5fNopYkzwB1lC8-48" value="" style="edgeStyle=orthogonalEdgeStyle;rounded=0;orthogonalLoop=1;jettySize=auto;html=1;" edge="1" parent="WIyWlLk6GJQsqaUBKTNV-1" source="3fvBfz5fNopYkzwB1lC8-25" target="3fvBfz5fNopYkzwB1lC8-47">
          <mxGeometry relative="1" as="geometry" />
        </mxCell>
        <mxCell id="3fvBfz5fNopYkzwB1lC8-25" value="register" style="rounded=1;whiteSpace=wrap;html=1;absoluteArcSize=1;arcSize=14;strokeWidth=2;" vertex="1" parent="WIyWlLk6GJQsqaUBKTNV-1">
          <mxGeometry x="90" y="295" width="100" height="60" as="geometry" />
        </mxCell>
        <mxCell id="3fvBfz5fNopYkzwB1lC8-37" value="" style="edgeStyle=orthogonalEdgeStyle;rounded=0;orthogonalLoop=1;jettySize=auto;html=1;" edge="1" parent="WIyWlLk6GJQsqaUBKTNV-1" source="3fvBfz5fNopYkzwB1lC8-29" target="3fvBfz5fNopYkzwB1lC8-36">
          <mxGeometry relative="1" as="geometry" />
        </mxCell>
        <mxCell id="3fvBfz5fNopYkzwB1lC8-29" value="login" style="rounded=1;whiteSpace=wrap;html=1;absoluteArcSize=1;arcSize=14;strokeWidth=2;" vertex="1" parent="WIyWlLk6GJQsqaUBKTNV-1">
          <mxGeometry x="300" y="295" width="100" height="60" as="geometry" />
        </mxCell>
        <mxCell id="3fvBfz5fNopYkzwB1lC8-33" value="exit" style="rounded=1;whiteSpace=wrap;html=1;absoluteArcSize=1;arcSize=14;strokeWidth=2;" vertex="1" parent="WIyWlLk6GJQsqaUBKTNV-1">
          <mxGeometry x="590" y="295" width="100" height="60" as="geometry" />
        </mxCell>
        <mxCell id="3fvBfz5fNopYkzwB1lC8-39" value="" style="edgeStyle=orthogonalEdgeStyle;rounded=0;orthogonalLoop=1;jettySize=auto;html=1;" edge="1" parent="WIyWlLk6GJQsqaUBKTNV-1" source="3fvBfz5fNopYkzwB1lC8-36" target="3fvBfz5fNopYkzwB1lC8-38">
          <mxGeometry relative="1" as="geometry" />
        </mxCell>
        <mxCell id="3fvBfz5fNopYkzwB1lC8-45" value="No" style="edgeLabel;html=1;align=center;verticalAlign=middle;resizable=0;points=[];" vertex="1" connectable="0" parent="3fvBfz5fNopYkzwB1lC8-39">
          <mxGeometry x="-0.6857" y="3" relative="1" as="geometry">
            <mxPoint as="offset" />
          </mxGeometry>
        </mxCell>
        <mxCell id="3fvBfz5fNopYkzwB1lC8-59" value="" style="edgeStyle=orthogonalEdgeStyle;rounded=0;orthogonalLoop=1;jettySize=auto;html=1;" edge="1" parent="WIyWlLk6GJQsqaUBKTNV-1" source="3fvBfz5fNopYkzwB1lC8-36" target="3fvBfz5fNopYkzwB1lC8-46">
          <mxGeometry relative="1" as="geometry" />
        </mxCell>
        <mxCell id="3fvBfz5fNopYkzwB1lC8-36" value="apakah berhasil" style="strokeWidth=2;html=1;shape=mxgraph.flowchart.decision;whiteSpace=wrap;" vertex="1" parent="WIyWlLk6GJQsqaUBKTNV-1">
          <mxGeometry x="300" y="400" width="100" height="100" as="geometry" />
        </mxCell>
        <mxCell id="3fvBfz5fNopYkzwB1lC8-44" style="edgeStyle=orthogonalEdgeStyle;rounded=0;orthogonalLoop=1;jettySize=auto;html=1;entryX=1;entryY=0.5;entryDx=0;entryDy=0;" edge="1" parent="WIyWlLk6GJQsqaUBKTNV-1" source="3fvBfz5fNopYkzwB1lC8-38" target="3fvBfz5fNopYkzwB1lC8-29">
          <mxGeometry relative="1" as="geometry">
            <Array as="points">
              <mxPoint x="520" y="325" />
            </Array>
          </mxGeometry>
        </mxCell>
        <mxCell id="3fvBfz5fNopYkzwB1lC8-38" value="username dan password tidak sesuai" style="rounded=1;whiteSpace=wrap;html=1;absoluteArcSize=1;arcSize=14;strokeWidth=2;" vertex="1" parent="WIyWlLk6GJQsqaUBKTNV-1">
          <mxGeometry x="470" y="420" width="100" height="60" as="geometry" />
        </mxCell>
        <mxCell id="3fvBfz5fNopYkzwB1lC8-42" style="edgeStyle=orthogonalEdgeStyle;rounded=0;orthogonalLoop=1;jettySize=auto;html=1;entryX=0.42;entryY=0.017;entryDx=0;entryDy=0;entryPerimeter=0;" edge="1" parent="WIyWlLk6GJQsqaUBKTNV-1" source="3fvBfz5fNopYkzwB1lC8-1" target="3fvBfz5fNopYkzwB1lC8-25">
          <mxGeometry relative="1" as="geometry" />
        </mxCell>
        <mxCell id="3fvBfz5fNopYkzwB1lC8-63" value="" style="edgeStyle=orthogonalEdgeStyle;rounded=0;orthogonalLoop=1;jettySize=auto;html=1;" edge="1" parent="WIyWlLk6GJQsqaUBKTNV-1" source="3fvBfz5fNopYkzwB1lC8-46" target="3fvBfz5fNopYkzwB1lC8-62">
          <mxGeometry relative="1" as="geometry" />
        </mxCell>
        <mxCell id="3fvBfz5fNopYkzwB1lC8-46" value="1. buat nama kucing&lt;div&gt;2. lihat nama kucing&lt;/div&gt;&lt;div&gt;3. perbarui nama kucing&lt;/div&gt;&lt;div&gt;4.hapus nama kucing&lt;/div&gt;&lt;div&gt;5. logout&lt;/div&gt;" style="rounded=1;whiteSpace=wrap;html=1;absoluteArcSize=1;arcSize=14;strokeWidth=2;" vertex="1" parent="WIyWlLk6GJQsqaUBKTNV-1">
          <mxGeometry x="255" y="560" width="190" height="80" as="geometry" />
        </mxCell>
        <mxCell id="3fvBfz5fNopYkzwB1lC8-50" value="" style="edgeStyle=orthogonalEdgeStyle;rounded=0;orthogonalLoop=1;jettySize=auto;html=1;" edge="1" parent="WIyWlLk6GJQsqaUBKTNV-1" source="3fvBfz5fNopYkzwB1lC8-47" target="3fvBfz5fNopYkzwB1lC8-49">
          <mxGeometry relative="1" as="geometry" />
        </mxCell>
        <mxCell id="3fvBfz5fNopYkzwB1lC8-51" value="No" style="edgeLabel;html=1;align=center;verticalAlign=middle;resizable=0;points=[];" vertex="1" connectable="0" parent="3fvBfz5fNopYkzwB1lC8-50">
          <mxGeometry x="-0.7" y="-3" relative="1" as="geometry">
            <mxPoint as="offset" />
          </mxGeometry>
        </mxCell>
        <mxCell id="3fvBfz5fNopYkzwB1lC8-54" value="" style="edgeStyle=orthogonalEdgeStyle;rounded=0;orthogonalLoop=1;jettySize=auto;html=1;" edge="1" parent="WIyWlLk6GJQsqaUBKTNV-1" source="3fvBfz5fNopYkzwB1lC8-47" target="3fvBfz5fNopYkzwB1lC8-53">
          <mxGeometry relative="1" as="geometry" />
        </mxCell>
        <mxCell id="3fvBfz5fNopYkzwB1lC8-55" value="yes" style="edgeLabel;html=1;align=center;verticalAlign=middle;resizable=0;points=[];" vertex="1" connectable="0" parent="3fvBfz5fNopYkzwB1lC8-54">
          <mxGeometry x="-0.3143" y="2" relative="1" as="geometry">
            <mxPoint as="offset" />
          </mxGeometry>
        </mxCell>
        <mxCell id="3fvBfz5fNopYkzwB1lC8-47" value="apakah berhasil" style="strokeWidth=2;html=1;shape=mxgraph.flowchart.decision;whiteSpace=wrap;" vertex="1" parent="WIyWlLk6GJQsqaUBKTNV-1">
          <mxGeometry x="90" y="400" width="100" height="100" as="geometry" />
        </mxCell>
        <mxCell id="3fvBfz5fNopYkzwB1lC8-58" style="edgeStyle=orthogonalEdgeStyle;rounded=0;orthogonalLoop=1;jettySize=auto;html=1;entryX=0;entryY=0.5;entryDx=0;entryDy=0;" edge="1" parent="WIyWlLk6GJQsqaUBKTNV-1" source="3fvBfz5fNopYkzwB1lC8-49" target="3fvBfz5fNopYkzwB1lC8-25">
          <mxGeometry relative="1" as="geometry">
            <Array as="points">
              <mxPoint x="-60" y="325" />
            </Array>
          </mxGeometry>
        </mxCell>
        <mxCell id="3fvBfz5fNopYkzwB1lC8-49" value="username dan password sudah ada" style="rounded=1;whiteSpace=wrap;html=1;absoluteArcSize=1;arcSize=14;strokeWidth=2;" vertex="1" parent="WIyWlLk6GJQsqaUBKTNV-1">
          <mxGeometry x="-110" y="420" width="100" height="60" as="geometry" />
        </mxCell>
        <mxCell id="3fvBfz5fNopYkzwB1lC8-60" value="" style="edgeStyle=orthogonalEdgeStyle;rounded=0;orthogonalLoop=1;jettySize=auto;html=1;" edge="1" parent="WIyWlLk6GJQsqaUBKTNV-1" source="3fvBfz5fNopYkzwB1lC8-53" target="3fvBfz5fNopYkzwB1lC8-46">
          <mxGeometry relative="1" as="geometry" />
        </mxCell>
        <mxCell id="3fvBfz5fNopYkzwB1lC8-53" value="registrasi berhasil" style="rounded=1;whiteSpace=wrap;html=1;absoluteArcSize=1;arcSize=14;strokeWidth=2;" vertex="1" parent="WIyWlLk6GJQsqaUBKTNV-1">
          <mxGeometry x="90" y="570" width="100" height="60" as="geometry" />
        </mxCell>
        <mxCell id="3fvBfz5fNopYkzwB1lC8-65" value="" style="edgeStyle=orthogonalEdgeStyle;rounded=0;orthogonalLoop=1;jettySize=auto;html=1;" edge="1" parent="WIyWlLk6GJQsqaUBKTNV-1" source="3fvBfz5fNopYkzwB1lC8-62" target="3fvBfz5fNopYkzwB1lC8-64">
          <mxGeometry relative="1" as="geometry" />
        </mxCell>
        <mxCell id="3fvBfz5fNopYkzwB1lC8-70" value="" style="edgeStyle=orthogonalEdgeStyle;rounded=0;orthogonalLoop=1;jettySize=auto;html=1;" edge="1" parent="WIyWlLk6GJQsqaUBKTNV-1" source="3fvBfz5fNopYkzwB1lC8-62" target="3fvBfz5fNopYkzwB1lC8-69">
          <mxGeometry relative="1" as="geometry" />
        </mxCell>
        <mxCell id="3fvBfz5fNopYkzwB1lC8-80" style="edgeStyle=orthogonalEdgeStyle;rounded=0;orthogonalLoop=1;jettySize=auto;html=1;entryX=0.5;entryY=0;entryDx=0;entryDy=0;" edge="1" parent="WIyWlLk6GJQsqaUBKTNV-1" source="3fvBfz5fNopYkzwB1lC8-62" target="3fvBfz5fNopYkzwB1lC8-79">
          <mxGeometry relative="1" as="geometry" />
        </mxCell>
        <mxCell id="3fvBfz5fNopYkzwB1lC8-89" style="edgeStyle=orthogonalEdgeStyle;rounded=0;orthogonalLoop=1;jettySize=auto;html=1;entryX=0.5;entryY=0;entryDx=0;entryDy=0;" edge="1" parent="WIyWlLk6GJQsqaUBKTNV-1" source="3fvBfz5fNopYkzwB1lC8-62" target="3fvBfz5fNopYkzwB1lC8-88">
          <mxGeometry relative="1" as="geometry" />
        </mxCell>
        <mxCell id="3fvBfz5fNopYkzwB1lC8-102" style="edgeStyle=orthogonalEdgeStyle;rounded=0;orthogonalLoop=1;jettySize=auto;html=1;entryX=0.5;entryY=0;entryDx=0;entryDy=0;" edge="1" parent="WIyWlLk6GJQsqaUBKTNV-1" source="3fvBfz5fNopYkzwB1lC8-62" target="3fvBfz5fNopYkzwB1lC8-101">
          <mxGeometry relative="1" as="geometry" />
        </mxCell>
        <mxCell id="3fvBfz5fNopYkzwB1lC8-62" value="user input" style="html=1;strokeWidth=2;shape=manualInput;whiteSpace=wrap;rounded=1;size=26;arcSize=11;" vertex="1" parent="WIyWlLk6GJQsqaUBKTNV-1">
          <mxGeometry x="300" y="700" width="100" height="60" as="geometry" />
        </mxCell>
        <mxCell id="3fvBfz5fNopYkzwB1lC8-68" value="" style="edgeStyle=orthogonalEdgeStyle;rounded=0;orthogonalLoop=1;jettySize=auto;html=1;" edge="1" parent="WIyWlLk6GJQsqaUBKTNV-1" source="3fvBfz5fNopYkzwB1lC8-64" target="3fvBfz5fNopYkzwB1lC8-66">
          <mxGeometry relative="1" as="geometry" />
        </mxCell>
        <mxCell id="3fvBfz5fNopYkzwB1lC8-64" value="buat nama kucing" style="rounded=1;whiteSpace=wrap;html=1;absoluteArcSize=1;arcSize=14;strokeWidth=2;" vertex="1" parent="WIyWlLk6GJQsqaUBKTNV-1">
          <mxGeometry x="90" y="800" width="100" height="60" as="geometry" />
        </mxCell>
        <mxCell id="3fvBfz5fNopYkzwB1lC8-73" value="" style="edgeStyle=orthogonalEdgeStyle;rounded=0;orthogonalLoop=1;jettySize=auto;html=1;" edge="1" parent="WIyWlLk6GJQsqaUBKTNV-1" source="3fvBfz5fNopYkzwB1lC8-66" target="3fvBfz5fNopYkzwB1lC8-72">
          <mxGeometry relative="1" as="geometry" />
        </mxCell>
        <mxCell id="3fvBfz5fNopYkzwB1lC8-66" value="nama kucing" style="html=1;strokeWidth=2;shape=manualInput;whiteSpace=wrap;rounded=1;size=26;arcSize=11;" vertex="1" parent="WIyWlLk6GJQsqaUBKTNV-1">
          <mxGeometry x="90" y="890" width="100" height="60" as="geometry" />
        </mxCell>
        <mxCell id="3fvBfz5fNopYkzwB1lC8-75" value="" style="edgeStyle=orthogonalEdgeStyle;rounded=0;orthogonalLoop=1;jettySize=auto;html=1;" edge="1" parent="WIyWlLk6GJQsqaUBKTNV-1" source="3fvBfz5fNopYkzwB1lC8-69" target="3fvBfz5fNopYkzwB1lC8-74">
          <mxGeometry relative="1" as="geometry" />
        </mxCell>
        <mxCell id="3fvBfz5fNopYkzwB1lC8-69" value="lihat nama kucing" style="rounded=1;whiteSpace=wrap;html=1;absoluteArcSize=1;arcSize=14;strokeWidth=2;" vertex="1" parent="WIyWlLk6GJQsqaUBKTNV-1">
          <mxGeometry x="300" y="800" width="100" height="60" as="geometry" />
        </mxCell>
        <mxCell id="3fvBfz5fNopYkzwB1lC8-72" value="nama kucing" style="shape=parallelogram;html=1;strokeWidth=2;perimeter=parallelogramPerimeter;whiteSpace=wrap;rounded=1;arcSize=12;size=0.23;" vertex="1" parent="WIyWlLk6GJQsqaUBKTNV-1">
          <mxGeometry x="90" y="1000" width="100" height="60" as="geometry" />
        </mxCell>
        <mxCell id="3fvBfz5fNopYkzwB1lC8-74" value="nama kucing" style="strokeWidth=2;html=1;shape=mxgraph.flowchart.display;whiteSpace=wrap;" vertex="1" parent="WIyWlLk6GJQsqaUBKTNV-1">
          <mxGeometry x="305" y="900" width="90" height="60" as="geometry" />
        </mxCell>
        <mxCell id="3fvBfz5fNopYkzwB1lC8-78" value="" style="edgeStyle=orthogonalEdgeStyle;rounded=0;orthogonalLoop=1;jettySize=auto;html=1;" edge="1" parent="WIyWlLk6GJQsqaUBKTNV-1" source="3fvBfz5fNopYkzwB1lC8-77" target="3fvBfz5fNopYkzwB1lC8-1">
          <mxGeometry relative="1" as="geometry" />
        </mxCell>
        <mxCell id="3fvBfz5fNopYkzwB1lC8-77" value="start" style="strokeWidth=2;html=1;shape=mxgraph.flowchart.start_1;whiteSpace=wrap;" vertex="1" parent="WIyWlLk6GJQsqaUBKTNV-1">
          <mxGeometry x="300" y="40" width="100" height="60" as="geometry" />
        </mxCell>
        <mxCell id="3fvBfz5fNopYkzwB1lC8-83" value="" style="edgeStyle=orthogonalEdgeStyle;rounded=0;orthogonalLoop=1;jettySize=auto;html=1;" edge="1" parent="WIyWlLk6GJQsqaUBKTNV-1" source="3fvBfz5fNopYkzwB1lC8-79" target="3fvBfz5fNopYkzwB1lC8-82">
          <mxGeometry relative="1" as="geometry" />
        </mxCell>
        <mxCell id="3fvBfz5fNopYkzwB1lC8-79" value="perbarui nama kucing" style="rounded=1;whiteSpace=wrap;html=1;absoluteArcSize=1;arcSize=14;strokeWidth=2;" vertex="1" parent="WIyWlLk6GJQsqaUBKTNV-1">
          <mxGeometry x="470" y="800" width="100" height="60" as="geometry" />
        </mxCell>
        <mxCell id="3fvBfz5fNopYkzwB1lC8-85" value="" style="edgeStyle=orthogonalEdgeStyle;rounded=0;orthogonalLoop=1;jettySize=auto;html=1;" edge="1" parent="WIyWlLk6GJQsqaUBKTNV-1" source="3fvBfz5fNopYkzwB1lC8-82" target="3fvBfz5fNopYkzwB1lC8-84">
          <mxGeometry relative="1" as="geometry" />
        </mxCell>
        <mxCell id="3fvBfz5fNopYkzwB1lC8-82" value="nama kucing lama" style="html=1;strokeWidth=2;shape=manualInput;whiteSpace=wrap;rounded=1;size=26;arcSize=11;" vertex="1" parent="WIyWlLk6GJQsqaUBKTNV-1">
          <mxGeometry x="470" y="900" width="100" height="60" as="geometry" />
        </mxCell>
        <mxCell id="3fvBfz5fNopYkzwB1lC8-87" value="" style="edgeStyle=orthogonalEdgeStyle;rounded=0;orthogonalLoop=1;jettySize=auto;html=1;" edge="1" parent="WIyWlLk6GJQsqaUBKTNV-1" source="3fvBfz5fNopYkzwB1lC8-84" target="3fvBfz5fNopYkzwB1lC8-86">
          <mxGeometry relative="1" as="geometry" />
        </mxCell>
        <mxCell id="3fvBfz5fNopYkzwB1lC8-84" value="nama kucing baru" style="html=1;strokeWidth=2;shape=manualInput;whiteSpace=wrap;rounded=1;size=26;arcSize=11;" vertex="1" parent="WIyWlLk6GJQsqaUBKTNV-1">
          <mxGeometry x="470" y="1000" width="100" height="60" as="geometry" />
        </mxCell>
        <mxCell id="3fvBfz5fNopYkzwB1lC8-86" value="nama kucing" style="shape=parallelogram;html=1;strokeWidth=2;perimeter=parallelogramPerimeter;whiteSpace=wrap;rounded=1;arcSize=12;size=0.23;" vertex="1" parent="WIyWlLk6GJQsqaUBKTNV-1">
          <mxGeometry x="470" y="1109" width="100" height="60" as="geometry" />
        </mxCell>
        <mxCell id="3fvBfz5fNopYkzwB1lC8-91" value="" style="edgeStyle=orthogonalEdgeStyle;rounded=0;orthogonalLoop=1;jettySize=auto;html=1;" edge="1" parent="WIyWlLk6GJQsqaUBKTNV-1" source="3fvBfz5fNopYkzwB1lC8-88" target="3fvBfz5fNopYkzwB1lC8-90">
          <mxGeometry relative="1" as="geometry" />
        </mxCell>
        <mxCell id="3fvBfz5fNopYkzwB1lC8-88" value="hapus nama kucing" style="rounded=1;whiteSpace=wrap;html=1;absoluteArcSize=1;arcSize=14;strokeWidth=2;" vertex="1" parent="WIyWlLk6GJQsqaUBKTNV-1">
          <mxGeometry x="620" y="800" width="100" height="60" as="geometry" />
        </mxCell>
        <mxCell id="3fvBfz5fNopYkzwB1lC8-93" value="" style="edgeStyle=orthogonalEdgeStyle;rounded=0;orthogonalLoop=1;jettySize=auto;html=1;" edge="1" parent="WIyWlLk6GJQsqaUBKTNV-1" source="3fvBfz5fNopYkzwB1lC8-90" target="3fvBfz5fNopYkzwB1lC8-92">
          <mxGeometry relative="1" as="geometry" />
        </mxCell>
        <mxCell id="3fvBfz5fNopYkzwB1lC8-90" value="nama kucing" style="html=1;strokeWidth=2;shape=manualInput;whiteSpace=wrap;rounded=1;size=26;arcSize=11;" vertex="1" parent="WIyWlLk6GJQsqaUBKTNV-1">
          <mxGeometry x="620" y="890" width="100" height="60" as="geometry" />
        </mxCell>
        <mxCell id="3fvBfz5fNopYkzwB1lC8-95" value="" style="edgeStyle=orthogonalEdgeStyle;rounded=0;orthogonalLoop=1;jettySize=auto;html=1;" edge="1" parent="WIyWlLk6GJQsqaUBKTNV-1" source="3fvBfz5fNopYkzwB1lC8-92" target="3fvBfz5fNopYkzwB1lC8-94">
          <mxGeometry relative="1" as="geometry" />
        </mxCell>
        <mxCell id="3fvBfz5fNopYkzwB1lC8-96" value="yes" style="edgeLabel;html=1;align=center;verticalAlign=middle;resizable=0;points=[];" vertex="1" connectable="0" parent="3fvBfz5fNopYkzwB1lC8-95">
          <mxGeometry x="-0.6" y="1" relative="1" as="geometry">
            <mxPoint as="offset" />
          </mxGeometry>
        </mxCell>
        <mxCell id="3fvBfz5fNopYkzwB1lC8-98" value="" style="edgeStyle=orthogonalEdgeStyle;rounded=0;orthogonalLoop=1;jettySize=auto;html=1;" edge="1" parent="WIyWlLk6GJQsqaUBKTNV-1" source="3fvBfz5fNopYkzwB1lC8-92" target="3fvBfz5fNopYkzwB1lC8-97">
          <mxGeometry relative="1" as="geometry" />
        </mxCell>
        <mxCell id="3fvBfz5fNopYkzwB1lC8-92" value="apakah berhasil" style="strokeWidth=2;html=1;shape=mxgraph.flowchart.decision;whiteSpace=wrap;" vertex="1" parent="WIyWlLk6GJQsqaUBKTNV-1">
          <mxGeometry x="620" y="990" width="100" height="100" as="geometry" />
        </mxCell>
        <mxCell id="3fvBfz5fNopYkzwB1lC8-94" value="nama kucing berhaasil dihapus" style="rounded=1;whiteSpace=wrap;html=1;absoluteArcSize=1;arcSize=14;strokeWidth=2;" vertex="1" parent="WIyWlLk6GJQsqaUBKTNV-1">
          <mxGeometry x="620" y="1140" width="100" height="60" as="geometry" />
        </mxCell>
        <mxCell id="3fvBfz5fNopYkzwB1lC8-100" style="edgeStyle=orthogonalEdgeStyle;rounded=0;orthogonalLoop=1;jettySize=auto;html=1;entryX=1;entryY=0.5;entryDx=0;entryDy=0;" edge="1" parent="WIyWlLk6GJQsqaUBKTNV-1" source="3fvBfz5fNopYkzwB1lC8-97" target="3fvBfz5fNopYkzwB1lC8-90">
          <mxGeometry relative="1" as="geometry">
            <Array as="points">
              <mxPoint x="860" y="920" />
            </Array>
          </mxGeometry>
        </mxCell>
        <mxCell id="3fvBfz5fNopYkzwB1lC8-97" value="nama kucing tidak ditemukan" style="rounded=1;whiteSpace=wrap;html=1;absoluteArcSize=1;arcSize=14;strokeWidth=2;" vertex="1" parent="WIyWlLk6GJQsqaUBKTNV-1">
          <mxGeometry x="810" y="1010" width="100" height="60" as="geometry" />
        </mxCell>
        <mxCell id="3fvBfz5fNopYkzwB1lC8-101" value="logout" style="rounded=1;whiteSpace=wrap;html=1;absoluteArcSize=1;arcSize=14;strokeWidth=2;" vertex="1" parent="WIyWlLk6GJQsqaUBKTNV-1">
          <mxGeometry x="930" y="800" width="100" height="60" as="geometry" />
        </mxCell>
      </root>
    </mxGraphModel>
  </diagram>
</mxfile>
